<svg width="200" height="200" viewBox="0 0 200 200" fill="none" xmlns="http://www.w3.org/2000/svg">
  <defs>
    <linearGradient id="planora-icon-a" x1="0" y1="0" x2="200" y2="200" gradientUnits="userSpaceOnUse">
      <stop offset="0" stop-color="#155DFC"/>
      <stop offset="1" stop-color="#9810FA"/>
    </linearGradient>
    <linearGradient id="planora-icon-b" x1="0" y1="0" x2="200" y2="200" gradientUnits="userSpaceOnUse">
      <stop offset="0" stop-color="#9810FA"/>
      <stop offset="1" stop-color="#F6339A"/>
    </linearGradient>
    <linearGradient id="planora-icon-c" x1="0" y1="0" x2="200" y2="200" gradientUnits="userSpaceOnUse">
      <stop offset="0" stop-color="#155DFC"/>
      <stop offset="0.5" stop-color="#9810FA"/>
      <stop offset="1" stop-color="#F6339A"/>
    </linearGradient>
  </defs>
  <circle cx="100" cy="100" r="88" stroke="#9810FA" stroke-width="1.5" stroke-opacity="0.14"/>
  <circle cx="100" cy="100" r="56" stroke="#155DFC" stroke-width="1.2" stroke-opacity="0.11"/>
  <path d="M100 12A88 88 0 0 0 25 163" stroke="url(#planora-icon-a)" stroke-width="8" stroke-linecap="round"/>
  <path d="M100 12A88 88 0 0 1 188 100" stroke="url(#planora-icon-b)" stroke-width="8" stroke-linecap="round"/>
  <path d="M100 44A56 56 0 1 1 64 148" stroke="url(#planora-icon-a)" stroke-width="6" stroke-linecap="round" opacity="0.5"/>
  <circle cx="100" cy="100" r="28" fill="url(#planora-icon-c)"/>
  <text x="100" y="104" fill="#FFFFFF" font-family="Arial, Helvetica, sans-serif" font-size="30" font-weight="700" text-anchor="middle" dominant-baseline="middle">P</text>
  <circle cx="100" cy="12" r="8" fill="url(#planora-icon-a)"/>
  <circle cx="100" cy="12" r="4" fill="#FFFFFF"/>
  <circle cx="188" cy="100" r="8" fill="url(#planora-icon-b)"/>
  <circle cx="188" cy="100" r="4" fill="#FFFFFF"/>
  <circle cx="25" cy="163" r="6" fill="#9810FA" opacity="0.55"/>
</svg>
